{
  "title": "August-Osage County.2013.DVDSCR.XVID.AC3.HQ.Hive-CM8",
  "uid": 9449074,
  "size": 1793913443,
  "categoryP": "video",
  "categoryS": "movies",
  "magnet": "?xt=urn:btih:4d92da56b8623b35d1c83db7712825ce55da0fae&amp;dn=August-Osage+County.2013.DVDSCR.XVID.AC3.HQ.Hive-CM8&amp;tr=udp%3A%2F%2Ftracker.openbittorrent.com%3A80&amp;tr=udp%3A%2F%2Fopen.demonii.com%3A1337&amp;tr=udp%3A%2F%2Ftracker.coppersurfer.tk%3A6969&amp;tr=udp%3A%2F%2Fexodus.desync.com%3A6969",
  "seeders": 173,
  "leechers": 20,
  "uploader": "Acesn8s",
  "files": -1,
  "time": 1389138708,
  "description": "August-Osage County.2013.DVDSCR.XVID.AC3.HQ.Hive-CM8\n\n**********************************************************************************\n\nThx Hive\n\nCM8 Doing It Right The First Time\n\nSource: DVDScr DVD-R  Big thanks DRs\n\n\nEncode:\n\nquality was nice on the dvd, a bit dark and yellowish, otherwise great\nfixed the colouring added brightness and sharpness\n\ngot very nice\nenjoy till next scr\n\nVideo: 720x304 @bitrate 1500 2pass\nAudio: English AC3 5.1 @448\nSample: yes included\n\n**********************************************************************************\n\nFormat                         : AVI\nFormat/Info                    : Audio Video Interleave\nFile size                      : 1.65 GiB\nDuration                       : 2h 0mn\nOverall bit rate               : 1 957 Kbps\nWriting application            : Nandub v1.0rc2\nWriting library                : Nandub build 1853/release\n\n**********************************************************************************\n\nVideo\nID                             : 0\nFormat                         : MPEG-4 Visual\nFormat profile                 : Advanced Simple@L5\nFormat settings, BVOP          : 2\nFormat settings, QPel          : Yes\nFormat settings, GMC           : No warppoints\nFormat settings, Matrix        : Default (H.263)\nMuxing mode                    : Packed bitstream\nCodec ID                       : XVID\nCodec ID/Hint                  : XviD\nDuration                       : 2h 0mn\nBit rate                       : 1 500 Kbps\nWidth                          : 720 pixels\nHeight                         : 304 pixels\nDisplay aspect ratio           : 2.35:1\nFrame rate                     : 23.976 fps\nColor space                    : YUV\nChroma subsampling             : 4:2:0\nBit depth                      : 8 bits\nScan type                      : Progressive\nCompression mode               : Lossy\nBits/(Pixel*Frame)             : 0.286\nStream size                    : 1.27 GiB (77%)\nWriting library                : XviD 1.2.1 (UTC 2008-12-04)\n\n**********************************************************************************\n\nAudio\nID                             : 1\nFormat                         : AC-3\nFormat/Info                    : Audio Coding 3\nMode extension                 : CM (complete main)\nFormat settings, Endianness    : Big\nCodec ID                       : 2000\nDuration                       : 2h 0mn\nBit rate mode                  : Constant\nBit rate                       : 448 Kbps\nChannel(s)                     : 6 channels\nChannel positions              : Front: L C R, Side: L R, LFE\nSampling rate                  : 48.0 KHz\nBit depth                      : 16 bits\nCompression mode               : Lossy\nStream size                    : 388 MiB (23%)\nAlignment                      : Split accross interleaves\nInterleave, duration           : 42 ms (1.00 video frame)\nInterleave, preload duration   : 500 ms\n\n**********************************************************************************\n\nPlot:\n\nA look at the lives of the strong-willed women of the Weston family, whose paths have diverged\nuntil a family crisis brings them back to the Oklahoma house they grew up in, and to the\ndysfunctional woman who raised them.\n\n\nCast:\n\nMeryl Streep ... Violet Weston\nJulia Roberts ... Barbara Weston\nChris Cooper ... Charlie Aiken\nEwan McGregor ... Bill Fordham\nJuliette Lewis ... Karen Weston  \n\nIMDb: \n &lt;a href=&quot;\nhttp://www.imdb.com/title/tt1322269/&quot; rel=&quot;nofollow&quot; target=&quot;_NEW&quot;&gt;\nhttp://www.imdb.com/title/tt1322269/&lt;/a&gt;\n\n**********************************************************************************\n\nScreens:\n &lt;a href=&quot;\nhttp://img27.imageshack.us/img27/2433/2o3w.png&quot; rel=&quot;nofollow&quot; target=&quot;_NEW&quot;&gt;\nhttp://img27.imageshack.us/img27/2433/2o3w.png&lt;/a&gt;\n &lt;a href=&quot;\nhttp://img841.imageshack.us/img841/5403/3mwq.png&quot; rel=&quot;nofollow&quot; target=&quot;_NEW&quot;&gt;\nhttp://img841.imageshack.us/img841/5403/3mwq.png&lt;/a&gt;\n &lt;a href=&quot;\nhttp://img826.imageshack.us/img826/9155/qbqq.png&quot; rel=&quot;nofollow&quot; target=&quot;_NEW&quot;&gt;\nhttp://img826.imageshack.us/img826/9155/qbqq.png&lt;/a&gt;\n &lt;a href=&quot;\nhttp://img853.imageshack.us/img853/2848/318z.png&quot; rel=&quot;nofollow&quot; target=&quot;_NEW&quot;&gt;\nhttp://img853.imageshack.us/img853/2848/318z.png&lt;/a&gt;\n &lt;a href=&quot;\nhttp://img15.imageshack.us/img15/4372/6oan.png&quot; rel=&quot;nofollow&quot; target=&quot;_NEW&quot;&gt;\nhttp://img15.imageshack.us/img15/4372/6oan.png&lt;/a&gt;",
  "parsed": {
    "xt": "urn:btih:4d92da56b8623b35d1c83db7712825ce55da0fae",
    "dn": "August-Osage County.2013.DVDSCR.XVID.AC3.HQ.Hive-CM8",
    "tr": [
      "udp://exodus.desync.com:6969",
      "udp://open.demonii.com:1337",
      "udp://tracker.coppersurfer.tk:6969",
      "udp://tracker.openbittorrent.com:80"
    ],
    "infoHash": "4d92da56b8623b35d1c83db7712825ce55da0fae",
    "infoHashBuffer": {
      "type": "Buffer",
      "data": [
        77,
        146,
        218,
        86,
        184,
        98,
        59,
        53,
        209,
        200,
        61,
        183,
        113,
        40,
        37,
        206,
        85,
        218,
        15,
        174
      ]
    },
    "name": "August-Osage County.2013.DVDSCR.XVID.AC3.HQ.Hive-CM8",
    "announce": [
      "udp://exodus.desync.com:6969",
      "udp://open.demonii.com:1337",
      "udp://tracker.coppersurfer.tk:6969",
      "udp://tracker.openbittorrent.com:80"
    ],
    "urlList": []
  },
  "previous": 193,
  "peers": 7,
  "last_updated": "2016-12-25T00:36:07.829Z"
}